<svg xmlns="http://www.w3.org/2000/svg" xmlns:xlink="http://www.w3.org/1999/xlink" width="500" zoomAndPan="magnify" viewBox="0 0 375 374.999991" height="500" preserveAspectRatio="xMidYMid meet" version="1.2"><defs><clipPath id="dd36782ef4"><path d="M 19.15625 256.5 L 131.65625 256.5 L 131.65625 369 L 19.15625 369 Z M 19.15625 256.5 "/></clipPath><clipPath id="38df0545f4"><path d="M 19.15625 131.25 L 243.71875 131.25 L 243.71875 243.75 L 19.15625 243.75 Z M 19.15625 131.25 "/></clipPath><clipPath id="d3cc2d2ce7"><path d="M 75.40625 131.25 L 187.363281 131.25 C 218.429688 131.25 243.613281 156.433594 243.613281 187.5 C 243.613281 218.566406 218.429688 243.75 187.363281 243.75 L 75.40625 243.75 C 44.339844 243.75 19.15625 218.566406 19.15625 187.5 C 19.15625 156.433594 44.339844 131.25 75.40625 131.25 Z M 75.40625 131.25 "/></clipPath><clipPath id="e1f0b38087"><path d="M 19.15625 6 L 356 6 L 356 118.5 L 19.15625 118.5 Z M 19.15625 6 "/></clipPath><clipPath id="e88ea113ce"><path d="M 75.40625 6 L 299.59375 6 C 330.660156 6 355.84375 31.183594 355.84375 62.25 C 355.84375 93.316406 330.660156 118.5 299.59375 118.5 L 75.40625 118.5 C 44.339844 118.5 19.15625 93.316406 19.15625 62.25 C 19.15625 31.183594 44.339844 6 75.40625 6 Z M 75.40625 6 "/></clipPath></defs><g id="2217e163a9"><g clip-rule="nonzero" clip-path="url(#dd36782ef4)"><path style=" stroke:none;fill-rule:nonzero;fill:#9ae600;fill-opacity:1;" d="M 131.375 312.609375 C 131.375 314.445312 131.285156 316.28125 131.105469 318.109375 C 130.925781 319.9375 130.65625 321.753906 130.296875 323.554688 C 129.941406 325.359375 129.492188 327.136719 128.960938 328.898438 C 128.425781 330.65625 127.808594 332.382812 127.105469 334.082031 C 126.402344 335.777344 125.617188 337.4375 124.75 339.058594 C 123.882812 340.679688 122.941406 342.253906 121.921875 343.78125 C 120.898438 345.308594 119.804688 346.785156 118.640625 348.203125 C 117.472656 349.625 116.242188 350.984375 114.941406 352.285156 C 113.644531 353.585938 112.28125 354.816406 110.863281 355.984375 C 109.441406 357.148438 107.96875 358.242188 106.441406 359.261719 C 104.910156 360.285156 103.335938 361.226562 101.714844 362.09375 C 100.097656 362.960938 98.4375 363.746094 96.738281 364.449219 C 95.042969 365.152344 93.3125 365.769531 91.554688 366.300781 C 89.796875 366.835938 88.015625 367.28125 86.214844 367.640625 C 84.410156 368 82.59375 368.269531 80.765625 368.449219 C 78.9375 368.628906 77.105469 368.71875 75.265625 368.71875 C 73.429688 368.71875 71.597656 368.628906 69.765625 368.449219 C 67.9375 368.269531 66.121094 368 64.320312 367.640625 C 62.519531 367.28125 60.738281 366.835938 58.980469 366.300781 C 57.222656 365.769531 55.492188 365.152344 53.792969 364.449219 C 52.097656 363.746094 50.4375 362.960938 48.816406 362.09375 C 47.195312 361.226562 45.621094 360.285156 44.09375 359.261719 C 42.566406 358.242188 41.09375 357.148438 39.671875 355.984375 C 38.25 354.816406 36.890625 353.585938 35.589844 352.285156 C 34.292969 350.984375 33.058594 349.625 31.894531 348.203125 C 30.726562 346.785156 29.632812 345.308594 28.613281 343.78125 C 27.59375 342.253906 26.648438 340.679688 25.78125 339.058594 C 24.917969 337.4375 24.132812 335.777344 23.429688 334.082031 C 22.726562 332.382812 22.105469 330.65625 21.574219 328.898438 C 21.039062 327.136719 20.59375 325.359375 20.234375 323.554688 C 19.878906 321.753906 19.609375 319.9375 19.429688 318.109375 C 19.246094 316.28125 19.15625 314.445312 19.15625 312.609375 C 19.15625 310.773438 19.246094 308.9375 19.429688 307.109375 C 19.609375 305.28125 19.878906 303.464844 20.234375 301.664062 C 20.59375 299.859375 21.039062 298.082031 21.574219 296.320312 C 22.105469 294.5625 22.726562 292.835938 23.429688 291.136719 C 24.132812 289.441406 24.917969 287.78125 25.78125 286.160156 C 26.648438 284.539062 27.59375 282.964844 28.613281 281.4375 C 29.632812 279.910156 30.726562 278.433594 31.894531 277.015625 C 33.058594 275.59375 34.292969 274.234375 35.589844 272.933594 C 36.890625 271.632812 38.25 270.402344 39.671875 269.234375 C 41.09375 268.070312 42.566406 266.976562 44.09375 265.957031 C 45.621094 264.933594 47.195312 263.992188 48.816406 263.125 C 50.4375 262.257812 52.097656 261.472656 53.792969 260.769531 C 55.492188 260.066406 57.222656 259.449219 58.980469 258.917969 C 60.738281 258.382812 62.519531 257.9375 64.320312 257.578125 C 66.121094 257.21875 67.9375 256.949219 69.765625 256.769531 C 71.597656 256.589844 73.429688 256.5 75.265625 256.5 C 77.105469 256.5 78.9375 256.589844 80.765625 256.769531 C 82.59375 256.949219 84.410156 257.21875 86.214844 257.578125 C 88.015625 257.9375 89.796875 258.382812 91.554688 258.917969 C 93.3125 259.449219 95.042969 260.066406 96.738281 260.769531 C 98.4375 261.472656 100.097656 262.257812 101.714844 263.125 C 103.335938 263.992188 104.910156 264.933594 106.441406 265.957031 C 107.96875 266.976562 109.441406 268.070312 110.863281 269.234375 C 112.28125 270.402344 113.644531 271.632812 114.941406 272.933594 C 116.242188 274.234375 117.472656 275.59375 118.640625 277.015625 C 119.804688 278.433594 120.898438 279.910156 121.921875 281.4375 C 122.941406 282.964844 123.882812 284.539062 124.75 286.160156 C 125.617188 287.78125 126.402344 289.4375 127.105469 291.136719 C 127.808594 292.835938 128.425781 294.5625 128.960938 296.320312 C 129.492188 298.082031 129.941406 299.859375 130.296875 301.664062 C 130.65625 303.464844 130.925781 305.28125 131.105469 307.109375 C 131.285156 308.9375 131.375 310.773438 131.375 312.609375 Z M 131.375 312.609375 "/></g><g clip-rule="nonzero" clip-path="url(#38df0545f4)"><g clip-rule="nonzero" clip-path="url(#d3cc2d2ce7)"><path style=" stroke:none;fill-rule:nonzero;fill:#9ae600;fill-opacity:1;" d="M 19.15625 131.25 L 243.71875 131.25 L 243.71875 243.75 L 19.15625 243.75 Z M 19.15625 131.25 "/></g></g><g clip-rule="nonzero" clip-path="url(#e1f0b38087)"><g clip-rule="nonzero" clip-path="url(#e88ea113ce)"><path style=" stroke:none;fill-rule:nonzero;fill:#9ae600;fill-opacity:1;" d="M 19.15625 6 L 355.777344 6 L 355.777344 118.5 L 19.15625 118.5 Z M 19.15625 6 "/></g></g></g></svg>