<svg xmlns="http://www.w3.org/2000/svg" xmlns:xlink="http://www.w3.org/1999/xlink" width="500" zoomAndPan="magnify" viewBox="0 0 375 374.999991" height="500" preserveAspectRatio="xMidYMid meet" version="1.2"><defs><clipPath id="ada717b6e5"><path d="M 19.15625 256.5 L 131.65625 256.5 L 131.65625 369 L 19.15625 369 Z M 19.15625 256.5 "/></clipPath><clipPath id="245d73df57"><path d="M 19.15625 131.25 L 243.71875 131.25 L 243.71875 243.75 L 19.15625 243.75 Z M 19.15625 131.25 "/></clipPath><clipPath id="3ede14435d"><path d="M 75.40625 131.25 L 187.363281 131.25 C 218.429688 131.25 243.613281 156.433594 243.613281 187.5 C 243.613281 218.566406 218.429688 243.75 187.363281 243.75 L 75.40625 243.75 C 44.339844 243.75 19.15625 218.566406 19.15625 187.5 C 19.15625 156.433594 44.339844 131.25 75.40625 131.25 Z M 75.40625 131.25 "/></clipPath><clipPath id="496847604d"><path d="M 23.769531 6 L 360.828125 6 L 360.828125 118.5 L 23.769531 118.5 Z M 23.769531 6 "/></clipPath><clipPath id="d0fbe843b8"><path d="M 80.019531 6 L 304.203125 6 C 335.269531 6 360.453125 31.183594 360.453125 62.25 C 360.453125 93.316406 335.269531 118.5 304.203125 118.5 L 80.019531 118.5 C 48.953125 118.5 23.769531 93.316406 23.769531 62.25 C 23.769531 31.183594 48.953125 6 80.019531 6 Z M 80.019531 6 "/></clipPath></defs><g id="f91f5ea8a7"><g clip-rule="nonzero" clip-path="url(#ada717b6e5)"><path style=" stroke:none;fill-rule:nonzero;fill:#ffffff;fill-opacity:1;" d="M 131.65625 312.75 C 131.65625 314.59375 131.566406 316.429688 131.386719 318.261719 C 131.207031 320.097656 130.9375 321.917969 130.578125 323.722656 C 130.21875 325.53125 129.769531 327.316406 129.234375 329.078125 C 128.699219 330.839844 128.082031 332.574219 127.375 334.277344 C 126.671875 335.976562 125.882812 337.640625 125.015625 339.265625 C 124.148438 340.890625 123.203125 342.46875 122.179688 344 C 121.152344 345.53125 120.058594 347.011719 118.890625 348.433594 C 117.722656 349.859375 116.484375 351.222656 115.183594 352.523438 C 113.878906 353.828125 112.515625 355.0625 111.09375 356.230469 C 109.667969 357.402344 108.191406 358.496094 106.660156 359.519531 C 105.125 360.542969 103.546875 361.488281 101.921875 362.359375 C 100.300781 363.226562 98.636719 364.011719 96.933594 364.71875 C 95.230469 365.421875 93.5 366.042969 91.734375 366.578125 C 89.972656 367.113281 88.1875 367.558594 86.382812 367.917969 C 84.574219 368.277344 82.753906 368.546875 80.921875 368.730469 C 79.085938 368.910156 77.25 369 75.40625 369 C 73.566406 369 71.726562 368.910156 69.894531 368.730469 C 68.0625 368.546875 66.242188 368.277344 64.433594 367.917969 C 62.625 367.558594 60.84375 367.113281 59.078125 366.578125 C 57.316406 366.042969 55.582031 365.421875 53.882812 364.71875 C 52.179688 364.011719 50.515625 363.226562 48.890625 362.359375 C 47.265625 361.488281 45.6875 360.542969 44.15625 359.519531 C 42.625 358.496094 41.148438 357.402344 39.722656 356.230469 C 38.300781 355.0625 36.933594 353.828125 35.632812 352.523438 C 34.332031 351.222656 33.09375 349.859375 31.925781 348.433594 C 30.757812 347.011719 29.660156 345.53125 28.636719 344 C 27.613281 342.46875 26.667969 340.890625 25.800781 339.265625 C 24.929688 337.640625 24.144531 335.976562 23.4375 334.277344 C 22.734375 332.574219 22.113281 330.839844 21.578125 329.078125 C 21.046875 327.316406 20.597656 325.53125 20.238281 323.722656 C 19.878906 321.917969 19.609375 320.097656 19.429688 318.261719 C 19.246094 316.429688 19.15625 314.59375 19.15625 312.75 C 19.15625 310.90625 19.246094 309.070312 19.429688 307.238281 C 19.609375 305.402344 19.878906 303.582031 20.238281 301.777344 C 20.597656 299.96875 21.046875 298.183594 21.578125 296.421875 C 22.113281 294.660156 22.734375 292.925781 23.4375 291.222656 C 24.144531 289.523438 24.929688 287.859375 25.800781 286.234375 C 26.667969 284.609375 27.613281 283.03125 28.636719 281.5 C 29.660156 279.96875 30.757812 278.488281 31.925781 277.066406 C 33.09375 275.640625 34.332031 274.277344 35.632812 272.976562 C 36.933594 271.671875 38.300781 270.4375 39.722656 269.269531 C 41.148438 268.097656 42.625 267.003906 44.15625 265.980469 C 45.6875 264.957031 47.265625 264.011719 48.890625 263.140625 C 50.515625 262.273438 52.179688 261.488281 53.882812 260.78125 C 55.582031 260.078125 57.316406 259.457031 59.078125 258.921875 C 60.84375 258.386719 62.625 257.941406 64.433594 257.582031 C 66.242188 257.222656 68.0625 256.953125 69.894531 256.769531 C 71.726562 256.589844 73.566406 256.5 75.40625 256.5 C 77.25 256.5 79.085938 256.589844 80.921875 256.769531 C 82.753906 256.953125 84.574219 257.222656 86.382812 257.582031 C 88.1875 257.941406 89.972656 258.386719 91.734375 258.921875 C 93.5 259.457031 95.230469 260.078125 96.933594 260.78125 C 98.636719 261.488281 100.300781 262.273438 101.921875 263.140625 C 103.546875 264.011719 105.125 264.957031 106.660156 265.980469 C 108.191406 267.003906 109.667969 268.097656 111.09375 269.269531 C 112.515625 270.4375 113.878906 271.671875 115.183594 272.976562 C 116.484375 274.277344 117.722656 275.640625 118.890625 277.066406 C 120.058594 278.488281 121.152344 279.96875 122.179688 281.5 C 123.203125 283.03125 124.148438 284.609375 125.015625 286.234375 C 125.882812 287.859375 126.671875 289.523438 127.375 291.222656 C 128.082031 292.925781 128.699219 294.660156 129.234375 296.421875 C 129.769531 298.183594 130.21875 299.96875 130.578125 301.777344 C 130.9375 303.582031 131.207031 305.402344 131.386719 307.238281 C 131.566406 309.070312 131.65625 310.90625 131.65625 312.75 Z M 131.65625 312.75 "/></g><g clip-rule="nonzero" clip-path="url(#245d73df57)"><g clip-rule="nonzero" clip-path="url(#3ede14435d)"><path style=" stroke:none;fill-rule:nonzero;fill:#ffffff;fill-opacity:1;" d="M 19.15625 131.25 L 243.71875 131.25 L 243.71875 243.75 L 19.15625 243.75 Z M 19.15625 131.25 "/></g></g><g clip-rule="nonzero" clip-path="url(#496847604d)"><g clip-rule="nonzero" clip-path="url(#d0fbe843b8)"><path style=" stroke:none;fill-rule:nonzero;fill:#ffffff;fill-opacity:1;" d="M 23.769531 6 L 360.390625 6 L 360.390625 118.5 L 23.769531 118.5 Z M 23.769531 6 "/></g></g></g></svg>