<svg xmlns="http://www.w3.org/2000/svg" xmlns:xlink="http://www.w3.org/1999/xlink" width="500" zoomAndPan="magnify" viewBox="0 0 375 374.999991" height="500" preserveAspectRatio="xMidYMid meet" version="1.2"><defs><clipPath id="38db5256d3"><path d="M 19.15625 131.25 L 243.40625 131.25 L 243.40625 243.648438 L 19.15625 243.648438 Z M 19.15625 131.25 "/></clipPath><clipPath id="4772ae32c8"><path d="M 75.355469 131.25 L 187.210938 131.25 C 218.246094 131.25 243.40625 156.414062 243.40625 187.449219 C 243.40625 218.488281 218.246094 243.648438 187.210938 243.648438 L 75.355469 243.648438 C 44.320312 243.648438 19.15625 218.488281 19.15625 187.449219 C 19.15625 156.414062 44.320312 131.25 75.355469 131.25 Z M 75.355469 131.25 "/></clipPath><clipPath id="94bdb7f3ad"><path d="M 23.769531 6 L 360.519531 6 L 360.519531 118.5 L 23.769531 118.5 Z M 23.769531 6 "/></clipPath><clipPath id="3cc0f4d76c"><path d="M 80.019531 6 L 304.199219 6 C 335.265625 6 360.449219 31.183594 360.449219 62.25 C 360.449219 93.316406 335.265625 118.5 304.199219 118.5 L 80.019531 118.5 C 48.953125 118.5 23.769531 93.316406 23.769531 62.25 C 23.769531 31.183594 48.953125 6 80.019531 6 Z M 80.019531 6 "/></clipPath><clipPath id="5cf70bb6d4"><path d="M 19.15625 256.5 L 133.15625 256.5 L 133.15625 370.5 L 19.15625 370.5 Z M 19.15625 256.5 "/></clipPath></defs><g id="87474d7f48"><g clip-rule="nonzero" clip-path="url(#38db5256d3)"><g clip-rule="nonzero" clip-path="url(#4772ae32c8)"><path style="fill:none;stroke-width:10;stroke-linecap:butt;stroke-linejoin:miter;stroke:#9ae600;stroke-opacity:1;stroke-miterlimit:4;" d="M 74.997053 -0.00243227 L 224.270195 -0.00243227 C 265.687171 -0.00243227 299.263853 33.579463 299.263853 74.996439 C 299.263853 116.418628 265.687171 149.995311 224.270195 149.995311 L 74.997053 149.995311 C 33.580077 149.995311 -0.00181831 116.418628 -0.00181831 74.996439 C -0.00181831 33.579463 33.580077 -0.00243227 74.997053 -0.00243227 Z M 74.997053 -0.00243227 " transform="matrix(0.749334,0,0,0.749334,19.157613,131.251823)"/></g></g><g clip-rule="nonzero" clip-path="url(#94bdb7f3ad)"><g clip-rule="nonzero" clip-path="url(#3cc0f4d76c)"><path style="fill:none;stroke-width:10;stroke-linecap:butt;stroke-linejoin:miter;stroke:#9ae600;stroke-opacity:1;stroke-miterlimit:4;" d="M 75.000307 -0.00113163 L 373.906558 -0.00113163 C 415.328433 -0.00113163 448.906558 33.576993 448.906558 74.998868 C 448.906558 116.420744 415.328433 149.998869 373.906558 149.998869 L 75.000307 149.998869 C 33.578432 149.998869 0.000306974 116.420744 0.000306974 74.998868 C 0.000306974 33.576993 33.578432 -0.00113163 75.000307 -0.00113163 Z M 75.000307 -0.00113163 " transform="matrix(0.75,0,0,0.75,23.769301,6.000849)"/></g></g><g clip-rule="nonzero" clip-path="url(#5cf70bb6d4)"><path style=" stroke:none;fill-rule:nonzero;fill:#9ae600;fill-opacity:1;" d="M 76.15625 370.5 C 44.667969 370.5 19.15625 344.816406 19.15625 313.5 C 19.15625 282.183594 44.667969 256.5 76.15625 256.5 C 107.648438 256.5 133.15625 282.007812 133.15625 313.5 C 133.15625 344.992188 107.472656 370.5 76.15625 370.5 Z M 76.15625 260.019531 C 46.601562 260.019531 22.675781 283.945312 22.675781 313.5 C 22.675781 343.054688 46.601562 366.980469 76.15625 366.980469 C 105.714844 366.980469 129.640625 343.054688 129.640625 313.5 C 129.640625 283.945312 105.539062 260.019531 76.15625 260.019531 Z M 76.15625 260.019531 "/></g></g></svg>