<svg xmlns="http://www.w3.org/2000/svg" xmlns:xlink="http://www.w3.org/1999/xlink" width="500" zoomAndPan="magnify" viewBox="0 0 375 374.999991" height="500" preserveAspectRatio="xMidYMid meet" version="1.2"><defs><clipPath id="ae0fcf1911"><path d="M 72.253906 234.828125 L 149.269531 234.828125 L 149.269531 311.847656 L 72.253906 311.847656 Z M 72.253906 234.828125 "/></clipPath><clipPath id="b3db20d7bf"><path d="M 72.253906 149.085938 L 225.988281 149.085938 L 225.988281 226.101562 L 72.253906 226.101562 Z M 72.253906 149.085938 "/></clipPath><clipPath id="4835daf52c"><path d="M 110.761719 149.085938 L 187.40625 149.085938 C 208.675781 149.085938 225.914062 166.324219 225.914062 187.59375 C 225.914062 208.859375 208.675781 226.101562 187.40625 226.101562 L 110.761719 226.101562 C 89.496094 226.101562 72.253906 208.859375 72.253906 187.59375 C 72.253906 166.324219 89.496094 149.085938 110.761719 149.085938 Z M 110.761719 149.085938 "/></clipPath><clipPath id="4750065550"><path d="M 72.253906 63.339844 L 303 63.339844 L 303 140.355469 L 72.253906 140.355469 Z M 72.253906 63.339844 "/></clipPath><clipPath id="d3e022125d"><path d="M 110.761719 63.339844 L 264.238281 63.339844 C 285.503906 63.339844 302.746094 80.578125 302.746094 101.847656 C 302.746094 123.113281 285.503906 140.355469 264.238281 140.355469 L 110.761719 140.355469 C 89.496094 140.355469 72.253906 123.113281 72.253906 101.847656 C 72.253906 80.578125 89.496094 63.339844 110.761719 63.339844 Z M 110.761719 63.339844 "/></clipPath></defs><g id="1ad5fd94f3"><g clip-rule="nonzero" clip-path="url(#ae0fcf1911)"><path style=" stroke:none;fill-rule:nonzero;fill:#9ae600;fill-opacity:1;" d="M 149.078125 273.242188 C 149.078125 274.5 149.015625 275.753906 148.894531 277.007812 C 148.769531 278.257812 148.585938 279.503906 148.339844 280.734375 C 148.09375 281.96875 147.789062 283.1875 147.425781 284.394531 C 147.058594 285.597656 146.636719 286.78125 146.152344 287.941406 C 145.671875 289.105469 145.136719 290.238281 144.542969 291.347656 C 143.949219 292.460938 143.304688 293.535156 142.605469 294.582031 C 141.90625 295.628906 141.15625 296.636719 140.359375 297.609375 C 139.5625 298.582031 138.71875 299.515625 137.828125 300.402344 C 136.9375 301.292969 136.007812 302.136719 135.035156 302.933594 C 134.0625 303.734375 133.050781 304.480469 132.007812 305.179688 C 130.960938 305.878906 129.882812 306.527344 128.773438 307.117188 C 127.664062 307.710938 126.527344 308.25 125.367188 308.730469 C 124.203125 309.210938 123.019531 309.636719 121.816406 310 C 120.613281 310.367188 119.394531 310.671875 118.160156 310.917969 C 116.925781 311.160156 115.683594 311.347656 114.429688 311.46875 C 113.179688 311.59375 111.925781 311.65625 110.664062 311.65625 C 109.40625 311.65625 108.152344 311.59375 106.902344 311.46875 C 105.648438 311.347656 104.40625 311.160156 103.171875 310.917969 C 101.9375 310.671875 100.71875 310.367188 99.515625 310 C 98.3125 309.636719 97.128906 309.210938 95.964844 308.730469 C 94.804688 308.25 93.667969 307.710938 92.558594 307.117188 C 91.449219 306.527344 90.371094 305.878906 89.324219 305.179688 C 88.277344 304.480469 87.269531 303.734375 86.296875 302.933594 C 85.324219 302.136719 84.394531 301.292969 83.503906 300.402344 C 82.613281 299.515625 81.769531 298.582031 80.972656 297.609375 C 80.175781 296.636719 79.425781 295.628906 78.726562 294.582031 C 78.027344 293.535156 77.382812 292.460938 76.789062 291.347656 C 76.195312 290.238281 75.660156 289.105469 75.175781 287.941406 C 74.695312 286.78125 74.273438 285.597656 73.90625 284.394531 C 73.542969 283.1875 73.238281 281.96875 72.992188 280.734375 C 72.746094 279.503906 72.5625 278.257812 72.4375 277.007812 C 72.316406 275.753906 72.253906 274.5 72.253906 273.242188 C 72.253906 271.984375 72.316406 270.730469 72.4375 269.476562 C 72.5625 268.226562 72.746094 266.980469 72.992188 265.75 C 73.238281 264.515625 73.542969 263.296875 73.90625 262.089844 C 74.273438 260.886719 74.695312 259.703125 75.175781 258.542969 C 75.660156 257.378906 76.195312 256.246094 76.789062 255.136719 C 77.382812 254.023438 78.027344 252.949219 78.726562 251.902344 C 79.425781 250.855469 80.175781 249.847656 80.972656 248.875 C 81.769531 247.902344 82.613281 246.96875 83.503906 246.082031 C 84.394531 245.191406 85.324219 244.347656 86.296875 243.550781 C 87.269531 242.75 88.277344 242.003906 89.324219 241.304688 C 90.371094 240.605469 91.449219 239.957031 92.558594 239.367188 C 93.667969 238.773438 94.804688 238.234375 95.964844 237.753906 C 97.128906 237.273438 98.3125 236.847656 99.515625 236.484375 C 100.71875 236.117188 101.9375 235.8125 103.171875 235.566406 C 104.40625 235.324219 105.648438 235.136719 106.902344 235.015625 C 108.152344 234.890625 109.40625 234.828125 110.664062 234.828125 C 111.925781 234.828125 113.179688 234.890625 114.429688 235.015625 C 115.683594 235.136719 116.925781 235.324219 118.160156 235.566406 C 119.394531 235.8125 120.613281 236.117188 121.816406 236.484375 C 123.019531 236.847656 124.203125 237.273438 125.367188 237.753906 C 126.527344 238.234375 127.664062 238.773438 128.773438 239.367188 C 129.882812 239.957031 130.960938 240.605469 132.007812 241.304688 C 133.050781 242.003906 134.0625 242.75 135.035156 243.550781 C 136.007812 244.347656 136.9375 245.191406 137.828125 246.082031 C 138.71875 246.96875 139.5625 247.902344 140.359375 248.875 C 141.15625 249.847656 141.90625 250.855469 142.605469 251.902344 C 143.304688 252.949219 143.949219 254.023438 144.542969 255.136719 C 145.136719 256.246094 145.671875 257.378906 146.152344 258.542969 C 146.636719 259.703125 147.058594 260.886719 147.425781 262.089844 C 147.789062 263.296875 148.09375 264.515625 148.339844 265.75 C 148.585938 266.980469 148.769531 268.226562 148.894531 269.476562 C 149.015625 270.730469 149.078125 271.984375 149.078125 273.242188 Z M 149.078125 273.242188 "/></g><g clip-rule="nonzero" clip-path="url(#b3db20d7bf)"><g clip-rule="nonzero" clip-path="url(#4835daf52c)"><path style=" stroke:none;fill-rule:nonzero;fill:#9ae600;fill-opacity:1;" d="M 72.253906 149.085938 L 225.988281 149.085938 L 225.988281 226.101562 L 72.253906 226.101562 Z M 72.253906 149.085938 "/></g></g><g clip-rule="nonzero" clip-path="url(#4750065550)"><g clip-rule="nonzero" clip-path="url(#d3e022125d)"><path style=" stroke:none;fill-rule:nonzero;fill:#9ae600;fill-opacity:1;" d="M 72.253906 63.339844 L 302.703125 63.339844 L 302.703125 140.355469 L 72.253906 140.355469 Z M 72.253906 63.339844 "/></g></g></g></svg>